<svg xmlns="http://www.w3.org/2000/svg" xmlns:xlink="http://www.w3.org/1999/xlink" width="1080" zoomAndPan="magnify" viewBox="0 0 810 809.999993" height="1080" preserveAspectRatio="xMidYMid meet" version="1.0"><defs><clipPath id="506ccef0f0"><path d="M 0 140.238281 L 810 140.238281 L 810 669.730469 L 0 669.730469 Z M 0 140.238281 " clip-rule="nonzero"/></clipPath></defs><g clip-path="url(#506ccef0f0)"><path fill="#65242c" d="M 144.910156 140.238281 C 129.984375 140.238281 117.964844 152.253906 117.964844 167.183594 C 117.964844 182.109375 129.984375 194.125 144.910156 194.125 L 515.984375 194.125 L 515.984375 357.363281 C 515.984375 372.203125 527.933594 384.308594 542.929688 384.308594 L 732.238281 384.308594 L 751.351562 418.496094 C 754.898438 424.84375 756.023438 425.742188 755.980469 426.398438 L 755.980469 544.15625 L 725.8125 544.15625 C 714.332031 501.710938 675.304688 470.113281 629.433594 470.113281 C 583.566406 470.113281 544.535156 501.710938 533.054688 544.15625 L 396.808594 544.15625 C 385.328125 501.710938 346.300781 470.113281 300.433594 470.113281 C 254.5625 470.113281 215.53125 501.710938 204.050781 544.15625 L 148.734375 544.15625 C 133.804688 544.15625 121.789062 556.171875 121.789062 571.097656 C 121.789062 586.023438 133.804688 598.042969 148.734375 598.042969 L 204.722656 598.042969 C 216.984375 639.296875 255.410156 669.746094 300.433594 669.746094 C 345.453125 669.746094 383.878906 639.296875 396.140625 598.042969 L 533.726562 598.042969 C 545.988281 639.296875 584.414062 669.746094 629.433594 669.746094 C 674.457031 669.746094 712.882812 639.296875 725.144531 598.042969 L 783.0625 598.042969 C 797.988281 598.042969 810.007812 586.023438 810.007812 571.097656 C 810.007812 570.167969 809.960938 569.242188 809.867188 568.335938 L 809.867188 411.855469 C 809.867188 403.921875 804.726562 394.421875 803.957031 393.046875 L 698.492188 204.371094 C 689.523438 188.332031 669.84375 187.734375 666.957031 187.734375 L 569.875 187.734375 L 569.875 167.183594 C 569.875 152.285156 557.871094 140.238281 542.925781 140.238281 Z M 67.597656 237.839844 C 52.667969 237.839844 40.652344 249.859375 40.652344 264.785156 C 40.652344 279.710938 52.667969 291.730469 67.597656 291.730469 L 268.925781 291.730469 C 283.855469 291.730469 295.871094 279.710938 295.871094 264.785156 C 295.871094 249.859375 283.855469 237.839844 268.925781 237.839844 Z M 569.875 241.621094 L 652.480469 241.621094 L 702.117188 330.417969 L 569.875 330.417969 Z M 26.945312 330.019531 C 12.015625 330.019531 0 342.035156 0 356.960938 C 0 371.890625 12.015625 383.90625 26.945312 383.90625 L 227.328125 383.90625 C 242.257812 383.90625 254.273438 371.890625 254.273438 356.960938 C 254.273438 342.035156 242.257812 330.019531 227.328125 330.019531 Z M 64.289062 425.03125 C 49.359375 425.03125 37.34375 437.050781 37.34375 451.976562 C 37.34375 466.902344 49.359375 478.917969 64.289062 478.917969 L 173.441406 478.917969 C 188.367188 478.917969 200.382812 466.902344 200.382812 451.976562 C 200.382812 437.050781 188.367188 425.03125 173.441406 425.03125 Z M 300.433594 530.265625 C 322.691406 530.265625 340.09375 547.667969 340.09375 569.925781 C 340.09375 592.191406 322.691406 609.59375 300.433594 609.59375 C 278.171875 609.59375 260.765625 592.191406 260.765625 569.925781 C 260.765625 547.667969 278.171875 530.265625 300.433594 530.265625 Z M 629.433594 530.265625 C 651.695312 530.265625 669.097656 547.667969 669.097656 569.925781 C 669.097656 592.191406 651.695312 609.59375 629.433594 609.59375 C 607.171875 609.59375 589.773438 592.191406 589.773438 569.925781 C 589.773438 547.667969 607.171875 530.265625 629.433594 530.265625 Z M 629.433594 530.265625 " fill-opacity="1" fill-rule="nonzero"/></g></svg>