<?xml version='1.0' encoding='iso-8859-1'?>
<svg version="1.1" xmlns="http://www.w3.org/2000/svg" viewBox="0 0 330.623 330.623" xmlns:xlink="http://www.w3.org/1999/xlink" enable-background="new 0 0 330.623 330.623">
  <g>
    <path d="m287.12,52.204h-139.21c-20.725,0-37.569,13.921-42.146,33.062h-25.718c-26.102,0-48.723,15.661-57.424,38.283l-20.882,52.203c-1.74,3.481-1.74,5.22-1.74,8.701v33.062c0,11.154 7.848,21.055 18.114,24.623 3.376,20.795 20.916,36.281 42.79,36.281 21.369,0 38.718-14.739 42.65-34.802h9.553 96.559c3.933,20.064 21.282,34.802 42.65,34.802s38.718-14.739 42.65-34.802h9.553c13.921,0 26.102-12.181 26.102-26.102v-121.808c0.002-24.362-19.14-43.503-43.501-43.503zm-226.216,208.814c-13.921,0-26.102-12.181-26.102-26.102 0-13.921 12.181-26.102 26.102-26.102s26.102,12.181 26.102,26.102c-1.42109e-14,13.921-12.181,26.102-26.102,26.102zm0-69.605c-19.037,0-34.75,11.763-40.771,28.503-0.592-1.218-0.992-2.558-0.992-4.142v-33.062l20.882-52.204c6.96-17.401 22.621-27.842 40.023-27.842h24.362v123.549h-0.853c-3.933-20.063-21.282-34.802-42.651-34.802zm191.413,69.605c-13.921,0-26.102-12.181-26.102-26.102 0-13.921 12.181-26.102 26.102-26.102 13.921,0 26.102,12.181 26.102,26.102 0,13.921-12.181,26.102-26.102,26.102zm60.905-43.503c0,5.22-3.48,8.701-8.701,8.701h-9.553c-3.933-20.064-21.282-34.802-42.65-34.802s-38.718,14.739-42.65,34.802h-87.859v-130.509c0-13.921 12.181-26.102 26.102-26.102h139.21c13.921,0 26.102,12.181 26.102,26.102v121.808z"/>
  </g>
</svg>
